<svg width="512" height="512" viewBox="0 0 512 512" fill="none" xmlns="http://www.w3.org/2000/svg">
<path d="M390.42 75.2802C388.55 75.2849 386.713 74.7876 385.1 73.8402C340.72 50.0802 302.35 40.0002 256.35 40.0002C210.58 40.0002 167.12 51.2802 127.59 73.8402C122 77.0002 115.11 74.8002 111.87 69.0002C110.424 66.2008 110.098 62.9559 110.958 59.9246C111.818 56.8933 113.799 54.3031 116.5 52.6802C159.134 28.5 207.337 15.8572 256.35 16.0002C305.58 16.0002 348.58 27.2802 395.74 52.4802C398.491 53.9931 400.54 56.5241 401.447 59.5303C402.354 62.5365 402.046 65.7783 400.59 68.5602C399.715 70.5353 398.291 72.2181 396.489 73.4091C394.686 74.6001 392.58 75.2495 390.42 75.2802ZM59.63 201.28C57.2282 201.263 54.8895 200.509 52.93 199.12C50.3806 197.226 48.666 194.415 48.1474 191.282C47.6289 188.148 48.3468 184.935 50.15 182.32C73.04 148.72 102.15 122.32 136.84 103.84C209.42 65.0002 302.35 64.7202 375.16 103.6C409.84 122.08 438.96 148.24 461.85 181.6C463.646 184.218 464.359 187.428 463.841 190.56C463.323 193.691 461.613 196.501 459.07 198.4C457.836 199.322 456.426 199.982 454.927 200.337C453.428 200.693 451.872 200.737 450.356 200.467C448.839 200.197 447.394 199.618 446.11 198.768C444.826 197.917 443.73 196.812 442.89 195.52C422.09 165.28 395.74 141.52 364.53 124.96C298.19 89.6802 213.35 89.6802 147.24 125.2C115.8 142 89.45 166 68.65 196.2C67.7531 197.789 66.4385 199.103 64.8485 199.998C63.2585 200.894 61.4539 201.337 59.63 201.28ZM204.1 491C202.572 491.015 201.059 490.701 199.664 490.08C198.268 489.459 197.022 488.545 196.01 487.4C175.9 466.48 165 453 149.55 424C133.55 394.48 125.28 358.48 125.28 319.84C125.28 248.56 183.99 190.48 256.12 190.48C328.25 190.48 387 248.56 387 319.84C387.045 321.386 386.78 322.926 386.22 324.367C385.66 325.809 384.816 327.124 383.738 328.233C382.661 329.343 381.372 330.225 379.947 330.827C378.523 331.43 376.992 331.74 375.445 331.74C373.898 331.74 372.367 331.43 370.943 330.827C369.518 330.225 368.229 329.343 367.152 328.233C366.074 327.124 365.23 325.809 364.67 324.367C364.11 322.926 363.845 321.386 363.89 319.84C363.89 261.76 315.57 214.48 256.17 214.48C196.77 214.48 148.4 261.76 148.4 319.84C148.4 354.4 155.79 386.32 169.89 412.24C184.69 439.84 194.89 451.6 212.66 470.32C214.767 472.65 215.934 475.679 215.934 478.82C215.934 481.961 214.767 484.991 212.66 487.32C210.391 489.609 207.322 490.929 204.1 491ZM369.85 446.6C342.34 446.6 318.07 439.4 298.19 425.24C281.253 413.369 267.416 397.601 257.845 379.266C248.273 360.93 243.247 340.564 243.19 319.88C243.125 318.322 243.376 316.766 243.928 315.307C244.48 313.848 245.321 312.516 246.4 311.39C247.48 310.264 248.777 309.368 250.211 308.757C251.646 308.145 253.19 307.829 254.75 307.829C256.31 307.829 257.854 308.145 259.289 308.757C260.723 309.368 262.02 310.264 263.1 311.39C264.179 312.516 265.02 313.848 265.572 315.307C266.124 316.766 266.375 318.322 266.31 319.88C266.349 336.68 270.446 353.222 278.253 368.099C286.06 382.975 297.346 395.744 311.15 405.32C327.56 416.84 346.75 422.32 369.87 422.32C377.922 422.177 385.949 421.374 393.87 419.92C400.11 418.72 406.12 423.04 407.27 429.76C407.856 432.861 407.188 436.068 405.413 438.678C403.637 441.287 400.9 443.086 397.8 443.68C388.592 445.5 379.236 446.464 369.85 446.56V446.6ZM323.38 496C322.365 495.958 321.358 495.797 320.38 495.52C283.62 484.96 259.58 470.8 234.38 445.12C202.01 411.76 184.22 367.36 184.22 319.84C184.22 280.96 216.12 249.28 255.41 249.28C294.7 249.28 326.61 280.96 326.61 319.84C326.61 345.52 348.11 366.4 374.69 366.4C401.27 366.4 422.77 345.52 422.77 319.84C422.77 229.36 347.64 155.92 255.18 155.92C189.53 155.92 129.43 193.84 102.39 252.64C93.39 272.08 88.75 294.88 88.75 319.84C88.75 338.56 90.36 368.08 104.23 406.48C106.55 412.72 103.54 419.68 97.53 421.84C96.1017 422.384 94.5782 422.634 93.051 422.574C91.5238 422.514 90.0244 422.146 88.643 421.493C87.2615 420.839 86.0265 419.912 85.0121 418.769C83.9977 417.626 83.2249 416.29 82.74 414.84C71.5867 384.408 65.873 352.252 65.86 319.84C65.86 291.04 71.18 264.84 81.58 242.08C112.33 175.08 180.52 131.68 255.18 131.68C360.36 131.68 445.89 215.92 445.89 319.6C445.89 358.48 413.99 390.16 374.69 390.16C335.39 390.16 303.49 358.48 303.49 319.6C303.5 293.92 282 273 255.42 273C228.84 273 207.34 293.88 207.34 319.56C207.34 360.56 222.6 399 250.57 427.8C272.57 450.36 293.57 462.8 326.16 472.2C332.4 473.88 335.87 480.6 334.25 486.84C333.745 489.373 332.394 491.66 330.419 493.324C328.444 494.988 325.962 495.932 323.38 496Z" fill="#C2DED1"/>
</svg>
